<?xml version="1.0" standalone="no"?>
<!DOCTYPE svg PUBLIC "-//W3C//DTD SVG 20010904//EN"
 "http://www.w3.org/TR/2001/REC-SVG-20010904/DTD/svg10.dtd">
<svg version="1.0" xmlns="http://www.w3.org/2000/svg"
 width="512.000000pt" height="512.000000pt" viewBox="0 0 512.000000 512.000000"
 preserveAspectRatio="xMidYMid meet">

<g transform="translate(0.000000,512.000000) scale(0.100000,-0.100000)"
fill="#ff725e" stroke="none">
<path d="M1749 4556 c-203 -59 -355 -256 -416 -536 -28 -132 -24 -345 10 -472
56 -212 185 -391 335 -465 73 -37 80 -38 182 -38 103 0 108 1 184 39 234 115
379 421 363 766 -16 328 -147 575 -362 677 -65 31 -88 36 -163 39 -53 2 -105
-2 -133 -10z"/>
<path d="M3150 4556 c-72 -19 -137 -56 -200 -113 -227 -206 -306 -648 -177
-993 67 -178 168 -300 304 -367 75 -37 81 -38 183 -38 102 0 109 1 182 38 153
75 286 264 340 482 29 118 31 329 4 455 -71 337 -278 552 -531 549 -33 0 -80
-6 -105 -13z"/>
<path d="M525 3513 c-131 -55 -217 -162 -259 -327 -74 -285 38 -697 240 -887
249 -232 566 -128 659 216 38 143 27 374 -26 535 -68 208 -209 386 -359 453
-62 28 -200 33 -255 10z"/>
<path d="M4363 3511 c-72 -27 -130 -69 -206 -151 -152 -164 -236 -418 -224
-680 9 -189 61 -318 169 -414 70 -64 142 -89 244 -84 69 3 91 8 156 40 86 43
179 134 237 232 42 70 97 215 119 311 23 101 22 329 -2 414 -41 151 -128 271
-231 321 -68 34 -188 38 -262 11z"/>
<path d="M2442 2690 c-152 -21 -299 -78 -421 -163 -69 -48 -903 -833 -964
-907 -55 -66 -104 -174 -123 -270 -58 -288 100 -611 362 -740 184 -90 374 -86
759 20 281 77 415 94 625 79 133 -9 201 -22 470 -89 235 -59 310 -72 413 -71
424 4 740 466 601 879 -34 101 -66 154 -147 239 -129 136 -856 816 -919 860
-182 128 -444 193 -656 163z"/>
</g>
</svg>
